<?xml version="1.0" encoding="UTF-8" standalone="no"?>
<svg
   width="194.75999"
   height="45"
   viewBox="0 0 194.75999 45"
   fill="none"
   version="1.1"
   id="svg8"
   sodipodi:docname="logo.svg"
   inkscape:version="1.1 (c68e22c387, 2021-05-23)"
   xmlns:inkscape="http://www.inkscape.org/namespaces/inkscape"
   xmlns:sodipodi="http://sodipodi.sourceforge.net/DTD/sodipodi-0.dtd"
   xmlns="http://www.w3.org/2000/svg"
   xmlns:svg="http://www.w3.org/2000/svg">
  <defs
     id="defs12" />
  <sodipodi:namedview
     id="namedview10"
     pagecolor="#ffffff"
     bordercolor="#666666"
     borderopacity="1.0"
     inkscape:pageshadow="2"
     inkscape:pageopacity="0.0"
     inkscape:pagecheckerboard="0"
     showgrid="false"
     inkscape:zoom="6.48"
     inkscape:cx="76.62037"
     inkscape:cy="32.484568"
     inkscape:window-width="1920"
     inkscape:window-height="1001"
     inkscape:window-x="-9"
     inkscape:window-y="-9"
     inkscape:window-maximized="1"
     inkscape:current-layer="svg8" />
  <path
     d="m 73.412,32.976 c 0.576,1.488 1.404,2.256 2.484,2.304 V 36 c -0.96,-0.072 -2.244,-0.108 -3.852,-0.108 -2.064,0 -3.6,0.036 -4.608,0.108 v -0.72 c 0.912,-0.048 1.56,-0.156 1.944,-0.324 0.408,-0.192 0.612,-0.528 0.612,-1.008 0,-0.408 -0.144,-0.972 -0.432,-1.692 l -2.196,-5.904 h -8.712 l -1.476,3.816 c -0.48,1.296 -0.72,2.28 -0.72,2.952 0,0.744 0.252,1.284 0.756,1.62 0.528,0.336 1.32,0.516 2.376,0.54 V 36 c -1.368,-0.072 -2.748,-0.108 -4.14,-0.108 -1.08,0 -1.98,0.036 -2.7,0.108 v -0.72 c 1.2,-0.288 2.148,-1.332 2.844,-3.132 l 8.46,-21.816 h 0.576 z M 67.076,25.632 63.044,14.868 58.94,25.632 Z m 14.6478,7.02 c 0,0.984 0.204,1.668 0.612,2.052 0.408,0.36 1.116,0.54 2.124,0.54 V 36 c -2.208,-0.096 -3.66,-0.144 -4.356,-0.144 -0.696,0 -2.148,0.048 -4.356,0.144 v -0.756 c 1.008,0 1.716,-0.18 2.124,-0.54 0.408,-0.384 0.612,-1.068 0.612,-2.052 V 12.096 c 0,-1.104 -0.204,-1.908 -0.612,-2.412 -0.408,-0.504 -1.116,-0.756 -2.124,-0.756 V 8.172 c 0.744,0.072 1.488,0.108 2.232,0.108 1.512,0 2.76,-0.168 3.744,-0.504 z M 89.6846,8.46 c 0.624,0 1.164,0.228 1.62,0.684 0.456,0.456 0.684,0.996 0.684,1.62 0,0.624 -0.228,1.164 -0.684,1.62 -0.456,0.456 -0.996,0.684 -1.62,0.684 -0.624,0 -1.164,-0.228 -1.62,-0.684 -0.456,-0.456 -0.684,-0.996 -0.684,-1.62 0,-0.624 0.228,-1.164 0.684,-1.62 0.456,-0.456 0.996,-0.684 1.62,-0.684 z m 1.872,24.192 c 0,0.984 0.204,1.668 0.612,2.052 0.408,0.36 1.116,0.54 2.124,0.54 V 36 c -2.208,-0.096 -3.66,-0.144 -4.356,-0.144 -0.696,0 -2.148,0.048 -4.356,0.144 v -0.756 c 1.008,0 1.716,-0.18 2.124,-0.54 0.408,-0.384 0.612,-1.068 0.612,-2.052 V 21.384 c 0,-1.104 -0.204,-1.908 -0.612,-2.412 -0.408,-0.504 -1.116,-0.756 -2.124,-0.756 V 17.46 c 0.768,0.072 1.512,0.108 2.232,0.108 1.512,0 2.76,-0.168 3.744,-0.504 z M 107.503,16.956 c 1.68,0 2.952,0.456 3.816,1.368 0.456,0.48 0.78,1.08 0.972,1.8 0.192,0.72 0.288,1.692 0.288,2.916 v 9.612 c 0,0.984 0.204,1.668 0.612,2.052 0.408,0.36 1.116,0.54 2.124,0.54 V 36 c -2.208,-0.096 -3.648,-0.144 -4.32,-0.144 -0.672,0 -2.016,0.048 -4.032,0.144 v -0.756 c 0.888,0 1.5,-0.18 1.836,-0.54 0.36,-0.384 0.54,-1.068 0.54,-2.052 V 22.248 c 0,-1.344 -0.192,-2.364 -0.576,-3.06 -0.384,-0.72 -1.164,-1.08 -2.34,-1.08 -0.984,0 -1.86,0.288 -2.628,0.864 -0.768,0.576 -1.368,1.368 -1.8,2.376 -0.408,0.984 -0.612,2.088 -0.612,3.312 v 7.992 c 0,0.984 0.168,1.668 0.504,2.052 0.36,0.36 0.984,0.54 1.872,0.54 V 36 c -2.016,-0.096 -3.36,-0.144 -4.032,-0.144 -0.672,0 -2.112,0.048 -4.3196,0.144 v -0.756 c 1.008,0 1.7156,-0.18 2.1236,-0.54 0.408,-0.384 0.612,-1.068 0.612,-2.052 V 21.384 c 0,-1.104 -0.204,-1.908 -0.612,-2.412 -0.408,-0.504 -1.1156,-0.756 -2.1236,-0.756 V 17.46 c 0.768,0.072 1.512,0.108 2.2316,0.108 1.512,0 2.76,-0.168 3.744,-0.504 v 4.248 c 0.6,-1.536 1.428,-2.64 2.484,-3.312 1.08,-0.696 2.292,-1.044 3.636,-1.044 z m 13.489,19.296 c -1.512,0 -2.64,-0.372 -3.384,-1.116 -0.72,-0.768 -1.08,-1.824 -1.08,-3.168 0,-1.08 0.288,-1.968 0.864,-2.664 0.6,-0.696 1.296,-1.248 2.088,-1.656 0.816,-0.408 1.884,-0.84 3.204,-1.296 1.344,-0.456 2.34,-0.876 2.988,-1.26 0.648,-0.384 0.972,-0.9 0.972,-1.548 v -2.232 c 0,-1.392 -0.3,-2.34 -0.9,-2.844 -0.576,-0.528 -1.392,-0.792 -2.448,-0.792 -1.68,0 -2.868,0.432 -3.564,1.296 0.48,0.12 0.876,0.372 1.188,0.756 0.336,0.384 0.504,0.864 0.504,1.44 0,0.6 -0.192,1.08 -0.576,1.44 -0.384,0.336 -0.876,0.504 -1.476,0.504 -0.672,0 -1.176,-0.204 -1.512,-0.612 -0.336,-0.432 -0.504,-0.948 -0.504,-1.548 0,-0.576 0.132,-1.056 0.396,-1.44 0.288,-0.384 0.708,-0.768 1.26,-1.152 0.576,-0.408 1.308,-0.744 2.196,-1.008 0.888,-0.264 1.86,-0.396 2.916,-0.396 1.872,0 3.288,0.444 4.248,1.332 0.6,0.552 0.996,1.224 1.188,2.016 0.216,0.768 0.324,1.788 0.324,3.06 v 10.008 c 0,0.6 0.084,1.032 0.252,1.296 0.168,0.264 0.456,0.396 0.864,0.396 0.288,0 0.552,-0.06 0.792,-0.18 0.264,-0.144 0.54,-0.336 0.828,-0.576 l 0.396,0.612 c -0.624,0.48 -1.164,0.828 -1.62,1.044 -0.432,0.192 -0.984,0.288 -1.656,0.288 -1.152,0 -1.956,-0.288 -2.412,-0.864 -0.456,-0.576 -0.684,-1.356 -0.684,-2.34 -0.72,1.2 -1.548,2.04 -2.484,2.52 -0.936,0.456 -1.992,0.684 -3.168,0.684 z m 1.584,-1.44 c 1.584,0 2.94,-0.912 4.068,-2.736 V 25.02 c -0.216,0.336 -0.516,0.612 -0.9,0.828 -0.384,0.216 -0.972,0.504 -1.764,0.864 -0.912,0.384 -1.656,0.756 -2.232,1.116 -0.552,0.336 -1.032,0.804 -1.44,1.404 -0.408,0.6 -0.612,1.368 -0.612,2.304 0,1.08 0.264,1.896 0.792,2.448 0.528,0.552 1.224,0.828 2.088,0.828 z m 28.273,-23.58 c -0.864,0.048 -1.5,0.144 -1.908,0.288 -0.384,0.144 -0.648,0.42 -0.792,0.828 -0.144,0.408 -0.216,1.068 -0.216,1.98 v 17.856 c 0,0.912 0.072,1.572 0.216,1.98 0.144,0.408 0.408,0.684 0.792,0.828 0.408,0.12 1.044,0.18 1.908,0.18 h 2.628 c 1.488,0 2.616,-0.204 3.384,-0.612 0.792,-0.432 1.368,-1.116 1.728,-2.052 0.36,-0.936 0.624,-2.292 0.792,-4.068 h 0.828 c -0.072,0.744 -0.108,1.728 -0.108,2.952 0,1.368 0.084,2.904 0.252,4.608 -1.632,-0.072 -4.38,-0.108 -8.244,-0.108 -4.608,0 -8.088,0.036 -10.44,0.108 v -0.72 c 0.864,-0.048 1.488,-0.144 1.872,-0.288 0.408,-0.144 0.684,-0.42 0.828,-0.828 0.144,-0.408 0.216,-1.068 0.216,-1.98 V 14.328 c 0,-0.912 -0.072,-1.572 -0.216,-1.98 -0.144,-0.408 -0.42,-0.684 -0.828,-0.828 -0.384,-0.144 -1.008,-0.24 -1.872,-0.288 v -0.72 c 1.008,0.072 2.544,0.108 4.608,0.108 1.92,0 3.444,-0.036 4.572,-0.108 z m 26.42,20.448 c -0.432,1.32 -1.248,2.46 -2.448,3.42 -1.176,0.936 -2.604,1.404 -4.284,1.404 -1.704,0 -3.18,-0.384 -4.428,-1.152 -1.248,-0.792 -2.208,-1.884 -2.88,-3.276 -0.648,-1.416 -0.972,-3.048 -0.972,-4.896 0,-2.088 0.336,-3.9 1.008,-5.436 0.672,-1.536 1.62,-2.712 2.844,-3.528 1.224,-0.84 2.652,-1.26 4.284,-1.26 2.16,0 3.816,0.66 4.968,1.98 1.176,1.296 1.764,3.276 1.764,5.94 h -11.268 c -0.072,0.672 -0.108,1.44 -0.108,2.304 0,1.584 0.252,2.964 0.756,4.14 0.528,1.176 1.212,2.088 2.052,2.736 0.864,0.624 1.764,0.936 2.7,0.936 1.152,0 2.172,-0.276 3.06,-0.828 0.888,-0.552 1.632,-1.476 2.232,-2.772 z m -7.02,-14.04 c -1.128,0 -2.1,0.552 -2.916,1.656 -0.816,1.104 -1.32,2.736 -1.512,4.896 h 7.848 c 0.048,-1.872 -0.228,-3.432 -0.828,-4.68 -0.576,-1.248 -1.44,-1.872 -2.592,-1.872 z m 24.511,14.04 c -0.432,1.32 -1.248,2.46 -2.448,3.42 -1.176,0.936 -2.604,1.404 -4.284,1.404 -1.704,0 -3.18,-0.384 -4.428,-1.152 -1.248,-0.792 -2.208,-1.884 -2.88,-3.276 -0.648,-1.416 -0.972,-3.048 -0.972,-4.896 0,-2.088 0.336,-3.9 1.008,-5.436 0.672,-1.536 1.62,-2.712 2.844,-3.528 1.224,-0.84 2.652,-1.26 4.284,-1.26 2.16,0 3.816,0.66 4.968,1.98 1.176,1.296 1.764,3.276 1.764,5.94 h -11.268 c -0.072,0.672 -0.108,1.44 -0.108,2.304 0,1.584 0.252,2.964 0.756,4.14 0.528,1.176 1.212,2.088 2.052,2.736 0.864,0.624 1.764,0.936 2.7,0.936 1.152,0 2.172,-0.276 3.06,-0.828 0.888,-0.552 1.632,-1.476 2.232,-2.772 z m -7.02,-14.04 c -1.128,0 -2.1,0.552 -2.916,1.656 -0.816,1.104 -1.32,2.736 -1.512,4.896 h 7.848 c 0.048,-1.872 -0.228,-3.432 -0.828,-4.68 -0.576,-1.248 -1.44,-1.872 -2.592,-1.872 z"
     fill="#0e1112"
     id="path2" />
  <circle
     cx="22.5"
     cy="22.5"
     r="22.5"
     fill="#b7cad5"
     id="circle4" />
  <path
     d="M 15.6182,11.8438 C 15.6182,10.1283 15.2044,8.776 14.377,7.7871 13.5697,6.7982 12.2982,6.3037 10.5625,6.3037 9.7552,6.3037 8.9479,6.4349 8.1406,6.6973 7.3333,6.9395 6.66732,7.3128 6.14258,7.8174 7.293,8.2008 8.1911,8.8063 8.8369,9.6338 c 0.6458,0.8073 0.9688,1.8265 0.9688,3.0576 0,0.8477 -0.2119,1.6146 -0.6358,2.3008 -0.4036,0.666 -0.9889,1.2008 -1.7558,1.6045 -0.76696,0.3834 -1.64489,0.5752 -2.63383,0.5752 -1.33203,0 -2.40169,-0.4541 -3.20898,-1.3623 -0.78711,-0.9082 -1.18067,-2.0485 -1.18067,-3.4209 0,-2.1394 1.1504,-3.875 3.45118,-5.2071 2.52278,-1.3925 5.6712,-2.0888 9.4453,-2.0888 4.2383,0 7.2555,0.9284 9.0518,2.7851 0.8678,0.8679 1.4531,1.9476 1.7558,3.2393 0.3028,1.2917 0.4541,3.098 0.4541,5.4189 v 16.8623 c 0,1.0092 0.0908,1.7256 0.2725,2.1495 0.2018,0.4036 0.5449,0.6054 1.0293,0.6054 0.666,0 1.4329,-0.3532 2.3008,-1.0595 l 0.6357,1.0595 c -0.9486,0.7871 -1.9779,1.3623 -3.0879,1.7256 -1.11,0.3633 -2.442,0.5449 -3.9961,0.5449 -2.0989,0 -3.6126,-0.4642 -4.541,-1.3926 -0.9284,-0.9283 -1.3926,-2.1393 -1.3926,-3.6328 -1.0091,1.6752 -2.331,2.9366 -3.9658,3.7842 -1.6348,0.8275 -3.3805,1.2412 -5.23729,1.2412 -2.36133,0 -4.25847,-0.6155 -5.69141,-1.8467 -1.41276,-1.2513 -2.11914,-2.9869 -2.11914,-5.207 0,-2.1595 0.70638,-3.9456 2.11914,-5.3584 1.41276,-1.4127 3.60254,-2.664 6.5693,-3.7539 0.323,-0.1211 1.3724,-0.5146 3.1485,-1.1807 1.776,-0.6861 3.0576,-1.3824 3.8447,-2.0888 0.7871,-0.7064 1.1807,-1.4834 1.1807,-2.3311 z m 0,7.3564 c -0.2624,0.444 -0.6963,0.9082 -1.3018,1.3926 -0.5853,0.4642 -1.4329,1.0394 -2.543,1.7256 -1.3118,0.9082 -2.3411,1.9375 -3.0879,3.0878 -0.7467,1.1303 -1.1201,2.543 -1.1201,4.2383 0,1.6146 0.3532,2.8256 1.0596,3.6328 0.7064,0.7872 1.6348,1.1807 2.7852,1.1807 1.6347,0 3.0374,-0.8476 4.208,-2.543 z"
     fill="#ffffff"
     id="path6" />
</svg>
